<svg xmlns="http://www.w3.org/2000/svg" viewBox="0 0 841.9 595.3">

	<symbol id="icon-home" stroke-width="0" viewBox="0 0 24 24" height="1em" width="1em">
		<path d="M20 20a1 1 0 0 1-1 1H5a1 1 0 0 1-1-1v-9H1l10.327-9.388a1 1 0 0 1 1.346 0L23 11h-3v9z"></path>
	</symbol>

	<symbol id="icon-doc" stroke-width="0" viewBox="0 0 384 512" height="1em" width="1em">
		<path d="M384 121.941V128H256V0h6.059c6.365 0 12.47 2.529 16.971 7.029l97.941 97.941A24.005 24.005 0 0 1 384 121.941zM248 160c-13.2 0-24-10.8-24-24V0H24C10.745 0 0 10.745 0 24v464c0 13.255 10.745 24 24 24h336c13.255 0 24-10.745 24-24V160H248zM123.206 400.505a5.4 5.4 0 0 1-7.633.246l-64.866-60.812a5.4 5.4 0 0 1 0-7.879l64.866-60.812a5.4 5.4 0 0 1 7.633.246l19.579 20.885a5.4 5.4 0 0 1-.372 7.747L101.65 336l40.763 35.874a5.4 5.4 0 0 1 .372 7.747l-19.579 20.884zm51.295 50.479l-27.453-7.97a5.402 5.402 0 0 1-3.681-6.692l61.44-211.626a5.402 5.402 0 0 1 6.692-3.681l27.452 7.97a5.4 5.4 0 0 1 3.68 6.692l-61.44 211.626a5.397 5.397 0 0 1-6.69 3.681zm160.792-111.045l-64.866 60.812a5.4 5.4 0 0 1-7.633-.246l-19.58-20.885a5.4 5.4 0 0 1 .372-7.747L284.35 336l-40.763-35.874a5.4 5.4 0 0 1-.372-7.747l19.58-20.885a5.4 5.4 0 0 1 7.633-.246l64.866 60.812a5.4 5.4 0 0 1-.001 7.879z"></path>
	</symbol>

	<symbol id="icon-master" stroke-width="0" viewBox="0 0 384 512" height="1em" width="1em">
		<path d="M319.4 320.6L224 416l-95.4-95.4C57.1 323.7 0 382.2 0 454.4v9.6c0 26.5 21.5 48 48 48h352c26.5 0 48-21.5 48-48v-9.6c0-72.2-57.1-130.7-128.6-133.8zM13.6 79.8l6.4 1.5v58.4c-7 4.2-12 11.5-12 20.3 0 8.4 4.6 15.4 11.1 19.7L3.5 242c-1.7 6.9 2.1 14 7.6 14h41.8c5.5 0 9.3-7.1 7.6-14l-15.6-62.3C51.4 175.4 56 168.4 56 160c0-8.8-5-16.1-12-20.3V87.1l66 15.9c-8.6 17.2-14 36.4-14 57 0 70.7 57.3 128 128 128s128-57.3 128-128c0-20.6-5.3-39.8-14-57l96.3-23.2c18.2-4.4 18.2-27.1 0-31.5l-190.4-46c-13-3.1-26.7-3.1-39.7 0L13.6 48.2c-18.1 4.4-18.1 27.2 0 31.6z"></path>
	</symbol>

	<symbol id="icon-bag" stroke-width="0" viewBox="0 0 24 24" height="1em" width="1em">
		<path d="M9 13v3h6v-3h7v7a1 1 0 0 1-1 1H3a1 1 0 0 1-1-1v-7h7zm2-2h2v3h-2v-3zM7 5V2a1 1 0 0 1 1-1h8a1 1 0 0 1 1 1v3h4a1 1 0 0 1 1 1v5h-7V9H9v2H2V6a1 1 0 0 1 1-1h4zm2-2v2h6V3H9z"></path>
	</symbol>

	<symbol id="icon-pen" stroke-width="0" viewBox="0 0 24 24" height="1em" width="1em">
		<path d="M21 2C6 2 4 16 3 22h1.998c.666-3.333 2.333-5.166 5.002-5.5 4-.5 7-4 8-7l-1.5-1 1-1c1-1 2.004-2.5 3.5-5.5z"></path>
	</symbol>

	<symbol id="icon-contact" stroke-width="0" viewBox="0 0 24 24" height="1em" width="1em">
		<path d="M6.455 19L2 22.5V4a1 1 0 0 1 1-1h18a1 1 0 0 1 1 1v14a1 1 0 0 1-1 1H6.455z"></path>
	</symbol>

	<symbol id="icon-buttonAboutMe" stroke-width="2" viewBox="0 0 24 24" stroke-linecap="round" stroke-linejoin="round" height="1em" width="1em">
		<line x1="3" y1="12" x2="21" y2="12"></line>
		<line x1="3" y1="6" x2="21" y2="6"></line>
		<line x1="3" y1="18" x2="21" y2="18"></line>
	</symbol>

	<symbol id="icon-buttonSideBar" stroke-width="2" viewBox="0 0 24 24" stroke-linecap="round" stroke-linejoin="round" height="1em" width="1em">
		<circle cx="12" cy="12" r="1"></circle>
		<circle cx="12" cy="5" r="1"></circle>
		<circle cx="12" cy="19" r="1"></circle>
	</symbol>

	<symbol id="icon-facebook" stroke-width="0" viewBox="0 0 320 512" height="1em" width="1em">
		<path d="M279.14 288l14.22-92.66h-88.91v-60.13c0-25.35 12.42-50.06 52.24-50.06h40.42V6.26S260.43 0 225.36 0c-73.22 0-121.08 44.38-121.08 124.72v70.62H22.89V288h81.39v224h100.17V288z"></path>
	</symbol>

	<symbol id="icon-twitter" stroke-width="0" viewBox="0 0 512 512" height="1em" width="1em">
		<path d="M459.37 151.716c.325 4.548.325 9.097.325 13.645 0 138.72-105.583 298.558-298.558 298.558-59.452 0-114.68-17.219-161.137-47.106 8.447.974 16.568 1.299 25.34 1.299 49.055 0 94.213-16.568 130.274-44.832-46.132-.975-84.792-31.188-98.112-72.772 6.498.974 12.995 1.624 19.818 1.624 9.421 0 18.843-1.3 27.614-3.573-48.081-9.747-84.143-51.98-84.143-102.985v-1.299c13.969 7.797 30.214 12.67 47.431 13.319-28.264-18.843-46.781-51.005-46.781-87.391 0-19.492 5.197-37.36 14.294-52.954 51.655 63.675 129.3 105.258 216.365 109.807-1.624-7.797-2.599-15.918-2.599-24.04 0-57.828 46.782-104.934 104.934-104.934 30.213 0 57.502 12.67 76.67 33.137 23.715-4.548 46.456-13.32 66.599-25.34-7.798 24.366-24.366 44.833-46.132 57.827 21.117-2.273 41.584-8.122 60.426-16.243-14.292 20.791-32.161 39.308-52.628 54.253z"></path>
	</symbol>

	<symbol id="icon-linkedin" stroke-width="0" viewBox="0 0 448 512" height="1em" width="1em">
		<path d="M100.28 448H7.4V148.9h92.88zM53.79 108.1C24.09 108.1 0 83.5 0 53.8a53.79 53.79 0 0 1 107.58 0c0 29.7-24.1 54.3-53.79 54.3zM447.9 448h-92.68V302.4c0-34.7-.7-79.2-48.29-79.2-48.29 0-55.69 37.7-55.69 76.7V448h-92.78V148.9h89.08v40.8h1.3c12.4-23.5 42.69-48.3 87.88-48.3 94 0 111.28 61.9 111.28 142.3V448z"></path>
	</symbol>

	<symbol id="icon-instagram" stroke-width="0" viewBox="0 0 448 512" height="1em" width="1em">
		<path d="M224.1 141c-63.6 0-114.9 51.3-114.9 114.9s51.3 114.9 114.9 114.9S339 319.5 339 255.9 287.7 141 224.1 141zm0 189.6c-41.1 0-74.7-33.5-74.7-74.7s33.5-74.7 74.7-74.7 74.7 33.5 74.7 74.7-33.6 74.7-74.7 74.7zm146.4-194.3c0 14.9-12 26.8-26.8 26.8-14.9 0-26.8-12-26.8-26.8s12-26.8 26.8-26.8 26.8 12 26.8 26.8zm76.1 27.2c-1.7-35.9-9.9-67.7-36.2-93.9-26.2-26.2-58-34.4-93.9-36.2-37-2.1-147.9-2.1-184.9 0-35.8 1.7-67.6 9.9-93.9 36.1s-34.4 58-36.2 93.9c-2.1 37-2.1 147.9 0 184.9 1.7 35.9 9.9 67.7 36.2 93.9s58 34.4 93.9 36.2c37 2.1 147.9 2.1 184.9 0 35.9-1.7 67.7-9.9 93.9-36.2 26.2-26.2 34.4-58 36.2-93.9 2.1-37 2.1-147.8 0-184.8zM398.8 388c-7.8 19.6-22.9 34.7-42.6 42.6-29.5 11.7-99.5 9-132.1 9s-102.7 2.6-132.1-9c-19.6-7.8-34.7-22.9-42.6-42.6-11.7-29.5-9-99.5-9-132.1s-2.6-102.7 9-132.1c7.8-19.6 22.9-34.7 42.6-42.6 29.5-11.7 99.5-9 132.1-9s102.7-2.6 132.1 9c19.6 7.8 34.7 22.9 42.6 42.6 11.7 29.5 9 99.5 9 132.1s2.7 102.7-9 132.1z"></path>
	</symbol>

	<symbol id="icon-whatsapp" stroke-width="0" viewBox="0 0 448 512" height="1em" width="1em">
		<path d="M380.9 97.1C339 55.1 283.2 32 223.9 32c-122.4 0-222 99.6-222 222 0 39.1 10.2 77.3 29.6 111L0 480l117.7-30.9c32.4 17.7 68.9 27 106.1 27h.1c122.3 0 224.1-99.6 224.1-222 0-59.3-25.2-115-67.1-157zm-157 341.6c-33.2 0-65.7-8.9-94-25.7l-6.7-4-69.8 18.3L72 359.2l-4.4-7c-18.5-29.4-28.2-63.3-28.2-98.2 0-101.7 82.8-184.5 184.6-184.5 49.3 0 95.6 19.2 130.4 54.1 34.8 34.9 56.2 81.2 56.1 130.5 0 101.8-84.9 184.6-186.6 184.6zm101.2-138.2c-5.5-2.8-32.8-16.2-37.9-18-5.1-1.9-8.8-2.8-12.5 2.8-3.7 5.6-14.3 18-17.6 21.8-3.2 3.7-6.5 4.2-12 1.4-32.6-16.3-54-29.1-75.5-66-5.7-9.8 5.7-9.1 16.3-30.3 1.8-3.7.9-6.9-.5-9.7-1.4-2.8-12.5-30.1-17.1-41.2-4.5-10.8-9.1-9.3-12.5-9.5-3.2-.2-6.9-.2-10.6-.2-3.7 0-9.7 1.4-14.8 6.9-5.1 5.6-19.4 19-19.4 46.3 0 27.3 19.9 53.7 22.6 57.4 2.8 3.7 39.1 59.7 94.8 83.8 35.2 15.2 49 16.5 66.6 13.9 10.7-1.6 32.8-13.4 37.4-26.4 4.6-13 4.6-24.1 3.2-26.4-1.3-2.5-5-3.9-10.5-6.6z"></path>
	</symbol>

	<symbol id="icon-extraskill" width="15" height="15" viewBox="0 0 15 15">
		<rect x="0.5" y="0.5" width="9" height="9" stroke="#FFB400" />
		<rect x="5.5" y="5.5" width="9" height="9" stroke="#FFB400" />
	</symbol>

	<symbol id="icon-download" stroke-width="0" viewBox="0 0 24 24" height="1em" width="1em">
		<path d="M12 16L16 11 13 11 13 4 11 4 11 11 8 11z"></path>
		<path d="M20,18H4v-7H2v7c0,1.103,0.897,2,2,2h16c1.103,0,2-0.897,2-2v-7h-2V18z"></path>
	</symbol>

	<symbol id="icon-copr" stroke-width="0" viewBox="0 0 512 512" height="1em" width="1em">
		<path d="M256 8C119.033 8 8 119.033 8 256s111.033 248 248 248 248-111.033 248-248S392.967 8 256 8zm0 448c-110.532 0-200-89.451-200-200 0-110.531 89.451-200 200-200 110.532 0 200 89.451 200 200 0 110.532-89.451 200-200 200zm107.351-101.064c-9.614 9.712-45.53 41.396-104.065 41.396-82.43 0-140.484-61.425-140.484-141.567 0-79.152 60.275-139.401 139.762-139.401 55.531 0 88.738 26.62 97.593 34.779a11.965 11.965 0 0 1 1.936 15.322l-18.155 28.113c-3.841 5.95-11.966 7.282-17.499 2.921-8.595-6.776-31.814-22.538-61.708-22.538-48.303 0-77.916 35.33-77.916 80.082 0 41.589 26.888 83.692 78.277 83.692 32.657 0 56.843-19.039 65.726-27.225 5.27-4.857 13.596-4.039 17.82 1.738l19.865 27.17a11.947 11.947 0 0 1-1.152 15.518z"></path>
	</symbol>

	<symbol id="icon-phone" width="16" height="16" viewBox="0 0 16 16">
		<path d="M11 1a1 1 0 0 1 1 1v12a1 1 0 0 1-1 1H5a1 1 0 0 1-1-1V2a1 1 0 0 1 1-1h6zM5 0a2 2 0 0 0-2 2v12a2 2 0 0 0 2 2h6a2 2 0 0 0 2-2V2a2 2 0 0 0-2-2H5z" />
		<path d="M8 14a1 1 0 1 0 0-2 1 1 0 0 0 0 2z" />
	</symbol>

	<symbol id="icon-message" viewBox="0 0 24 24">
		<path d="M19,4H5A3,3,0,0,0,2,7V17a3,3,0,0,0,3,3H19a3,3,0,0,0,3-3V7A3,3,0,0,0,19,4Zm-.67,2L12,10.75,5.67,6ZM19,18H5a1,1,0,0,1-1-1V7.25l7.4,5.55a1,1,0,0,0,.6.2,1,1,0,0,0,.6-.2L20,7.25V17A1,1,0,0,1,19,18Z" />
	</symbol>

	<symbol id="icon-location" viewBox="0 0 256 256">
		<rect width="256" height="256" fill="none"/>
		<path d="M228.9,49.7a8,8,0,0,0-6.8-1.5L160.9,63.5,99.6,32.8h-.1l-.8-.3h-.2l-.7-.2h-.3l-.7-.2H94.1l-64,16A8,8,0,0,0,24,56V200a7.8,7.8,0,0,0,3.1,6.3A7.9,7.9,0,0,0,32,208l1.9-.2,61.2-15.3,61.3,30.7h.1l.7.3h.1l.8.3h3.8l64-16A8,8,0,0,0,232,200V56A7.8,7.8,0,0,0,228.9,49.7ZM152,203.1l-48-24V52.9l48,24Z"/>
	</symbol>

	<symbol id="icon-close" viewBox="0 0 1024 1024">
		<path d="M195.2 195.2a64 64 0 0 1 90.496 0L512 421.504 738.304 195.2a64 64 0 0 1 90.496 90.496L602.496 512 828.8 738.304a64 64 0 0 1-90.496 90.496L512 602.496 285.696 828.8a64 64 0 0 1-90.496-90.496L421.504 512 195.2 285.696a64 64 0 0 1 0-90.496z"/>
	</symbol>
</svg>